<svg width="322" height="38" viewBox="0 0 322 38" fill="none" xmlns="http://www.w3.org/2000/svg">
<path d="M0.955966 37V2.09091H14.7287C17.3651 2.09091 19.6151 2.5625 21.4787 3.50568C23.3537 4.4375 24.7798 5.76136 25.7571 7.47727C26.7457 9.18182 27.2401 11.1875 27.2401 13.4943C27.2401 15.8125 26.7401 17.8068 25.7401 19.4773C24.7401 21.1364 23.2912 22.4091 21.3935 23.2955C19.5071 24.1818 17.223 24.625 14.5412 24.625H5.3196V18.6932H13.348C14.7571 18.6932 15.9276 18.5 16.8594 18.1136C17.7912 17.7273 18.4844 17.1477 18.9389 16.375C19.4048 15.6023 19.6378 14.642 19.6378 13.4943C19.6378 12.3352 19.4048 11.358 18.9389 10.5625C18.4844 9.76704 17.7855 9.16477 16.8423 8.75568C15.9105 8.33523 14.7344 8.125 13.3139 8.125H8.33665V37H0.955966ZM19.8082 21.1136L28.4844 37H20.3366L11.848 21.1136H19.8082ZM43.8295 37.5114C41.1364 37.5114 38.8182 36.9659 36.875 35.875C34.9432 34.7727 33.4545 33.2159 32.4091 31.2045C31.3636 29.1818 30.8409 26.7898 30.8409 24.0284C30.8409 21.3352 31.3636 18.9716 32.4091 16.9375C33.4545 14.9034 34.9261 13.3182 36.8239 12.1818C38.733 11.0455 40.9716 10.4773 43.5398 10.4773C45.267 10.4773 46.875 10.7557 48.3636 11.3125C49.8636 11.858 51.1705 12.6818 52.2841 13.7841C53.4091 14.8864 54.2841 16.2727 54.9091 17.9432C55.5341 19.6023 55.8466 21.5455 55.8466 23.7727V25.767H33.7386V21.267H49.0114C49.0114 20.2216 48.7841 19.2955 48.3295 18.4886C47.875 17.6818 47.2443 17.0511 46.4375 16.5966C45.642 16.1307 44.7159 15.8977 43.6591 15.8977C42.5568 15.8977 41.5795 16.1534 40.7273 16.6648C39.8864 17.1648 39.2273 17.8409 38.75 18.6932C38.2727 19.5341 38.0284 20.4716 38.017 21.5057V25.7841C38.017 27.0795 38.2557 28.1989 38.733 29.142C39.2216 30.0852 39.9091 30.8125 40.7955 31.3239C41.6818 31.8352 42.733 32.0909 43.9489 32.0909C44.7557 32.0909 45.4943 31.9773 46.1648 31.75C46.8352 31.5227 47.4091 31.1818 47.8864 30.7273C48.3636 30.2727 48.7273 29.7159 48.9773 29.0568L55.6932 29.5C55.3523 31.1136 54.6534 32.5227 53.5966 33.7273C52.5511 34.9205 51.1989 35.8523 49.5398 36.5227C47.892 37.1818 45.9886 37.5114 43.8295 37.5114ZM72.4148 37.5114C69.733 37.5114 67.4261 36.9432 65.4943 35.8068C63.5739 34.6591 62.0966 33.0682 61.0625 31.0341C60.0398 29 59.5284 26.6591 59.5284 24.0114C59.5284 21.3295 60.0455 18.9773 61.0795 16.9545C62.125 14.9205 63.608 13.3352 65.5284 12.1989C67.4489 11.0511 69.733 10.4773 72.3807 10.4773C74.6648 10.4773 76.6648 10.892 78.3807 11.7216C80.0966 12.5511 81.4545 13.7159 82.4545 15.2159C83.4545 16.7159 84.0057 18.4773 84.108 20.5H77.2557C77.0625 19.1932 76.5511 18.142 75.7216 17.3466C74.9034 16.5398 73.8295 16.1364 72.5 16.1364C71.375 16.1364 70.392 16.4432 69.5511 17.0568C68.7216 17.6591 68.0739 18.5398 67.608 19.6989C67.142 20.858 66.9091 22.2614 66.9091 23.9091C66.9091 25.5795 67.1364 27 67.5909 28.1705C68.0568 29.3409 68.7102 30.233 69.5511 30.8466C70.392 31.4602 71.375 31.767 72.5 31.767C73.3295 31.767 74.0739 31.5966 74.733 31.2557C75.4034 30.9148 75.9545 30.4205 76.3864 29.7727C76.8295 29.1136 77.1193 28.3239 77.2557 27.4034H84.108C83.9943 29.4034 83.4489 31.1648 82.4716 32.6875C81.5057 34.1989 80.1705 35.3807 78.4659 36.233C76.7614 37.0852 74.7443 37.5114 72.4148 37.5114ZM88.7571 37V10.8182H95.7969V15.3864H96.0696C96.5469 13.7614 97.348 12.5341 98.473 11.7045C99.598 10.8636 100.893 10.4432 102.359 10.4432C102.723 10.4432 103.115 10.4659 103.536 10.5114C103.956 10.5568 104.325 10.6193 104.643 10.6989V17.142C104.303 17.0398 103.831 16.9489 103.229 16.8693C102.626 16.7898 102.075 16.75 101.575 16.75C100.507 16.75 99.5526 16.983 98.7116 17.4489C97.8821 17.9034 97.223 18.5398 96.7344 19.358C96.2571 20.1761 96.0185 21.1193 96.0185 22.1875V37H88.7571ZM125.188 25.8523V10.8182H132.449V37H125.477V32.2443H125.205C124.614 33.7784 123.631 35.0114 122.256 35.9432C120.892 36.875 119.227 37.3409 117.261 37.3409C115.511 37.3409 113.972 36.9432 112.642 36.1477C111.313 35.3523 110.273 34.2216 109.523 32.7557C108.784 31.2898 108.409 29.5341 108.398 27.4886V10.8182H115.659V26.1932C115.67 27.7386 116.085 28.9602 116.903 29.858C117.722 30.7557 118.818 31.2045 120.193 31.2045C121.068 31.2045 121.886 31.0057 122.648 30.608C123.409 30.1989 124.023 29.5966 124.489 28.8011C124.966 28.0057 125.199 27.0227 125.188 25.8523ZM138.257 37V10.8182H145.518V37H138.257ZM141.905 7.44318C140.825 7.44318 139.899 7.08523 139.126 6.36932C138.365 5.64204 137.984 4.77273 137.984 3.76136C137.984 2.76136 138.365 1.90341 139.126 1.1875C139.899 0.460226 140.825 0.0965891 141.905 0.0965891C142.984 0.0965891 143.905 0.460226 144.666 1.1875C145.439 1.90341 145.825 2.76136 145.825 3.76136C145.825 4.77273 145.439 5.64204 144.666 6.36932C143.905 7.08523 142.984 7.44318 141.905 7.44318ZM165.261 10.8182V16.2727H149.494V10.8182H165.261ZM153.074 4.54545H160.335V28.9545C160.335 29.625 160.438 30.1477 160.642 30.5227C160.847 30.8864 161.131 31.142 161.494 31.2898C161.869 31.4375 162.301 31.5114 162.79 31.5114C163.131 31.5114 163.472 31.483 163.812 31.4261C164.153 31.358 164.415 31.3068 164.597 31.2727L165.739 36.6761C165.375 36.7898 164.864 36.9205 164.205 37.0682C163.545 37.2273 162.744 37.3239 161.801 37.358C160.051 37.4261 158.517 37.1932 157.199 36.6591C155.892 36.125 154.875 35.2955 154.148 34.1705C153.42 33.0455 153.063 31.625 153.074 29.9091V4.54545Z" fill="black"/>
<path d="M176.145 37H168.236L180.287 2.09091H189.798L201.832 37H193.923L185.179 10.0682H184.906L176.145 37ZM175.651 23.2784H194.332V29.0398H175.651V23.2784ZM219.509 10.8182V16.2727H203.349V10.8182H219.509ZM207.048 37V8.92614C207.048 7.02841 207.418 5.45454 208.156 4.20454C208.906 2.95454 209.929 2.01704 211.224 1.39204C212.52 0.767043 213.991 0.454543 215.639 0.454543C216.753 0.454543 217.77 0.539771 218.69 0.710227C219.622 0.880681 220.315 1.03409 220.77 1.17045L219.474 6.625C219.19 6.53409 218.838 6.44886 218.418 6.36932C218.009 6.28977 217.588 6.25 217.156 6.25C216.088 6.25 215.344 6.5 214.923 7C214.503 7.48864 214.293 8.17614 214.293 9.0625V37H207.048ZM223.945 37V10.8182H230.984V15.3864H231.257C231.734 13.7614 232.536 12.5341 233.661 11.7045C234.786 10.8636 236.081 10.4432 237.547 10.4432C237.911 10.4432 238.303 10.4659 238.723 10.5114C239.143 10.5568 239.513 10.6193 239.831 10.6989V17.142C239.49 17.0398 239.018 16.9489 238.416 16.8693C237.814 16.7898 237.263 16.75 236.763 16.75C235.695 16.75 234.74 16.983 233.899 17.4489C233.07 17.9034 232.411 18.5398 231.922 19.358C231.445 20.1761 231.206 21.1193 231.206 22.1875V37H223.945ZM243.585 37V10.8182H250.847V37H243.585ZM247.233 7.44318C246.153 7.44318 245.227 7.08523 244.455 6.36932C243.693 5.64204 243.312 4.77273 243.312 3.76136C243.312 2.76136 243.693 1.90341 244.455 1.1875C245.227 0.460226 246.153 0.0965891 247.233 0.0965891C248.313 0.0965891 249.233 0.460226 249.994 1.1875C250.767 1.90341 251.153 2.76136 251.153 3.76136C251.153 4.77273 250.767 5.64204 249.994 6.36932C249.233 7.08523 248.313 7.44318 247.233 7.44318ZM268.493 37.5114C265.811 37.5114 263.504 36.9432 261.572 35.8068C259.652 34.6591 258.175 33.0682 257.141 31.0341C256.118 29 255.607 26.6591 255.607 24.0114C255.607 21.3295 256.124 18.9773 257.158 16.9545C258.203 14.9205 259.686 13.3352 261.607 12.1989C263.527 11.0511 265.811 10.4773 268.459 10.4773C270.743 10.4773 272.743 10.892 274.459 11.7216C276.175 12.5511 277.533 13.7159 278.533 15.2159C279.533 16.7159 280.084 18.4773 280.186 20.5H273.334C273.141 19.1932 272.629 18.142 271.8 17.3466C270.982 16.5398 269.908 16.1364 268.578 16.1364C267.453 16.1364 266.47 16.4432 265.629 17.0568C264.8 17.6591 264.152 18.5398 263.686 19.6989C263.22 20.858 262.987 22.2614 262.987 23.9091C262.987 25.5795 263.214 27 263.669 28.1705C264.135 29.3409 264.788 30.233 265.629 30.8466C266.47 31.4602 267.453 31.767 268.578 31.767C269.408 31.767 270.152 31.5966 270.811 31.2557C271.482 30.9148 272.033 30.4205 272.464 29.7727C272.908 29.1136 273.197 28.3239 273.334 27.4034H280.186C280.072 29.4034 279.527 31.1648 278.55 32.6875C277.584 34.1989 276.249 35.3807 274.544 36.233C272.839 37.0852 270.822 37.5114 268.493 37.5114ZM292.301 37.4943C290.631 37.4943 289.142 37.2045 287.835 36.625C286.528 36.0341 285.494 35.1648 284.733 34.017C283.983 32.858 283.608 31.4148 283.608 29.6875C283.608 28.233 283.875 27.0114 284.409 26.0227C284.943 25.0341 285.67 24.2386 286.591 23.6364C287.511 23.0341 288.557 22.5795 289.727 22.2727C290.909 21.9659 292.148 21.75 293.443 21.625C294.966 21.4659 296.193 21.3182 297.125 21.1818C298.057 21.0341 298.733 20.8182 299.153 20.5341C299.574 20.25 299.784 19.8295 299.784 19.2727V19.1705C299.784 18.0909 299.443 17.2557 298.761 16.6648C298.091 16.0739 297.136 15.7784 295.898 15.7784C294.591 15.7784 293.551 16.0682 292.778 16.6477C292.006 17.2159 291.494 17.9318 291.244 18.7955L284.528 18.25C284.869 16.6591 285.54 15.2841 286.54 14.125C287.54 12.9545 288.83 12.0568 290.409 11.4318C292 10.7955 293.841 10.4773 295.932 10.4773C297.386 10.4773 298.778 10.6477 300.108 10.9886C301.449 11.3295 302.636 11.858 303.67 12.5739C304.716 13.2898 305.54 14.2102 306.142 15.3352C306.744 16.4489 307.045 17.7841 307.045 19.3409V37H300.159V33.3693H299.955C299.534 34.1875 298.972 34.9091 298.267 35.5341C297.562 36.1477 296.716 36.6307 295.727 36.983C294.739 37.3239 293.597 37.4943 292.301 37.4943ZM294.381 32.483C295.449 32.483 296.392 32.2727 297.21 31.8523C298.028 31.4205 298.67 30.8409 299.136 30.1136C299.602 29.3864 299.835 28.5625 299.835 27.642V24.8636C299.608 25.0114 299.295 25.1477 298.898 25.2727C298.511 25.3864 298.074 25.4943 297.585 25.5966C297.097 25.6875 296.608 25.7727 296.119 25.8523C295.631 25.9205 295.188 25.983 294.79 26.0398C293.938 26.1648 293.193 26.3636 292.557 26.6364C291.92 26.9091 291.426 27.2784 291.074 27.7443C290.722 28.1989 290.545 28.767 290.545 29.4489C290.545 30.4375 290.903 31.1932 291.619 31.7159C292.347 32.2273 293.267 32.483 294.381 32.483ZM316.923 37.4432C315.798 37.4432 314.832 37.0455 314.026 36.25C313.23 35.4432 312.832 34.4773 312.832 33.3523C312.832 32.2386 313.23 31.2841 314.026 30.4886C314.832 29.6932 315.798 29.2955 316.923 29.2955C318.014 29.2955 318.969 29.6932 319.787 30.4886C320.605 31.2841 321.014 32.2386 321.014 33.3523C321.014 34.1023 320.821 34.7898 320.435 35.4148C320.06 36.0284 319.565 36.5227 318.952 36.8977C318.338 37.2614 317.662 37.4432 316.923 37.4432Z" fill="#76B947"/>
</svg>
